<svg width="1374" height="855" viewBox="0 0 1374 855" fill="none" xmlns="http://www.w3.org/2000/svg">
<path opacity="0.1" d="M846.201 117.096C787.242 158.384 710.77 155.711 643.755 134.231C576.741 112.75 515.189 74.5044 449.887 47.3206C395.472 24.618 338.14 9.66809 279.57 2.90855C196.359 -6.61304 103.429 4.98544 45.4476 71.7316C-19.1184 146.057 -14.161 280.12 55.6766 348.357C91.1974 383.064 137.711 400.095 178.275 427.195C218.84 454.294 256.388 499.287 252.934 551.592C249.736 600.014 212.554 637.167 174.078 660.479C144.339 678.497 107.709 698.174 104.125 735.491C100.656 771.599 131.452 799.891 160.861 815.982C256.8 868.475 375.004 867.97 470.575 814.659C504.675 795.638 536.018 770.347 571.778 755.522C665.662 716.602 769.117 755.782 868.531 770.108C953.007 782.209 1039.1 775.941 1120.93 751.732C1170.17 737.187 1219.58 714.952 1254.17 673.529C1279.11 643.659 1294.65 605.859 1309.24 568.527C1324.79 528.717 1339.74 488.626 1354.09 448.256C1362.71 424.021 1371.18 399.316 1373.41 373.39C1377.44 326.401 1360.46 279.961 1337.33 240.304C1282.43 146.158 1189.96 79.9571 1089.87 63.1398C989.78 46.3224 883.728 79.1672 806.058 151.038" fill="#F16FD3" fill-opacity="0.8"/>
</svg>
