<svg width="187" height="45" viewBox="0 0 187 45" fill="none" xmlns="http://www.w3.org/2000/svg">
<path d="M64.2885 11.68C64.2885 12.7067 64.0152 13.58 63.4685 14.3C62.9218 15.0067 62.0485 15.36 60.8485 15.36C59.6485 15.36 58.7618 15.02 58.1885 14.34C57.6152 13.66 57.3285 12.84 57.3285 11.88C57.3285 10.36 58.0418 9.16667 59.4685 8.3C60.8952 7.43333 63.1752 7 66.3085 7H74.5085V11.1H72.2085V9.4H67.8085V12.88H69.3685V11.68H71.6685V16.48H69.3685V15.28H67.8085V18.6H72.3885V16.9H74.6885V21H63.2685V18.6H65.2085V9.42C63.2085 9.47333 61.8085 9.69333 61.0085 10.08C60.2218 10.4533 59.8285 11.0267 59.8285 11.8C59.8285 12.5733 60.1685 12.96 60.8485 12.96C61.4752 12.96 61.7885 12.5333 61.7885 11.68H64.2885ZM75.7579 8.2V6H79.8979V18.8H81.6379V21H75.7379V18.8H77.2979V8.2H75.7579ZM82.3348 13.2V11H87.0748V13.2H86.4148L87.8948 17.54L89.3748 13.2H88.7148V11H93.4548V13.2H92.2148L89.3348 21H86.4548L83.5748 13.2H82.3348ZM94.4782 13.2V11H98.6182V18.8H100.358V21H94.4582V18.8H96.0182V13.2H94.4782ZM97.3182 10.02C96.9049 10.02 96.5649 9.87333 96.2982 9.58C96.0449 9.28667 95.9182 8.93333 95.9182 8.52C95.9182 8.10667 96.0582 7.75333 96.3382 7.46C96.6182 7.15333 96.9649 7 97.3782 7C97.8049 7 98.1449 7.14667 98.3982 7.44C98.6515 7.73333 98.7782 8.08667 98.7782 8.5C98.7782 8.91333 98.6382 9.27333 98.3582 9.58C98.0782 9.87333 97.7315 10.02 97.3182 10.02ZM107.465 19.7C106.639 20.7 105.719 21.2 104.705 21.2C103.692 21.2 102.899 20.94 102.325 20.42C101.752 19.9 101.465 19.1733 101.465 18.24C101.465 17.2933 101.839 16.4933 102.585 15.84C103.332 15.1867 104.432 14.86 105.885 14.86H107.465V14.14C107.465 13.5133 107.072 13.2 106.285 13.2C105.499 13.2 104.799 13.2867 104.185 13.46V14.6H101.885V11.62C102.539 11.3667 103.299 11.1667 104.165 11.02C105.045 10.8733 105.779 10.8 106.365 10.8C107.525 10.8 108.432 11.1067 109.085 11.72C109.739 12.32 110.065 13.1267 110.065 14.14V18.9H111.705V20.64C111.132 20.9467 110.412 21.1 109.545 21.1C108.159 21.1 107.465 20.6333 107.465 19.7ZM104.885 18.8C105.805 18.8 106.665 18.2533 107.465 17.16V17.08H105.865C105.252 17.08 104.799 17.1867 104.505 17.4C104.212 17.6133 104.065 17.9 104.065 18.26C104.065 18.62 104.339 18.8 104.885 18.8ZM116.44 18.8H118.18V21H112.3V18.8H113.84V13.2H112.3V11H115.84L116.14 11.98C117.394 11.1933 118.527 10.8 119.54 10.8C120.794 10.8 121.66 11.1667 122.14 11.9C122.62 12.6333 122.86 13.6467 122.86 14.94V18.9H124.5V20.64C123.927 20.9467 123.234 21.1 122.42 21.1C121.607 21.1 121.04 20.92 120.72 20.56C120.414 20.2 120.26 19.6133 120.26 18.8V14.94C120.26 14.3533 120.18 13.92 120.02 13.64C119.86 13.3467 119.487 13.2 118.9 13.2C118.314 13.2 117.494 13.6 116.44 14.4V18.8ZM143.125 11.1C143.125 12.06 142.838 12.88 142.265 13.56C141.691 14.24 140.805 14.58 139.605 14.58C138.405 14.58 137.531 14.2267 136.985 13.52C136.438 12.8 136.165 11.9267 136.165 10.9H138.665C138.665 11.7533 138.978 12.18 139.605 12.18C140.085 12.18 140.325 11.82 140.325 11.1C140.325 10.5667 140.118 10.1333 139.705 9.8C139.291 9.46667 138.818 9.3 138.285 9.3C137.071 9.3 136.098 9.74667 135.365 10.64C134.645 11.52 134.285 12.64 134.285 14C134.285 15.36 134.645 16.4867 135.365 17.38C136.098 18.26 137.111 18.7 138.405 18.7C139.698 18.7 140.891 18.1267 141.985 16.98L143.505 18.88C142.265 20.4267 140.565 21.2 138.405 21.2C136.258 21.2 134.585 20.54 133.385 19.22C132.185 17.8867 131.585 16.16 131.585 14.04C131.585 11.92 132.185 10.1867 133.385 8.84C134.585 7.48 136.218 6.8 138.285 6.8C139.578 6.8 140.705 7.2 141.665 8C142.638 8.8 143.125 9.83333 143.125 11.1ZM150.375 19.7C149.549 20.7 148.629 21.2 147.615 21.2C146.602 21.2 145.809 20.94 145.235 20.42C144.662 19.9 144.375 19.1733 144.375 18.24C144.375 17.2933 144.749 16.4933 145.495 15.84C146.242 15.1867 147.342 14.86 148.795 14.86H150.375V14.14C150.375 13.5133 149.982 13.2 149.195 13.2C148.409 13.2 147.709 13.2867 147.095 13.46V14.6H144.795V11.62C145.449 11.3667 146.209 11.1667 147.075 11.02C147.955 10.8733 148.689 10.8 149.275 10.8C150.435 10.8 151.342 11.1067 151.995 11.72C152.649 12.32 152.975 13.1267 152.975 14.14V18.9H154.615V20.64C154.042 20.9467 153.322 21.1 152.455 21.1C151.069 21.1 150.375 20.6333 150.375 19.7ZM147.795 18.8C148.715 18.8 149.575 18.2533 150.375 17.16V17.08H148.775C148.162 17.08 147.709 17.1867 147.415 17.4C147.122 17.6133 146.975 17.9 146.975 18.26C146.975 18.62 147.249 18.8 147.795 18.8ZM155.031 8.2V6H159.171V14.78L159.871 14.52L161.211 13.2H160.531V11H165.731V13.2H164.611L162.051 15.74L164.631 18.9H166.151V20.64C165.857 20.8133 165.597 20.9333 165.371 21C165.144 21.0667 164.777 21.1 164.271 21.1C163.764 21.1 163.351 21.0133 163.031 20.84C162.711 20.6533 162.411 20.3733 162.131 20L159.811 16.96L159.171 17.22V18.8H160.511V21H155.011V18.8H156.571V8.2H155.031ZM176.218 15.92V16.98H169.458C169.498 17.5133 169.718 17.9533 170.118 18.3C170.532 18.6333 171.012 18.8 171.558 18.8C172.105 18.8 172.565 18.76 172.938 18.68C173.325 18.6 173.592 18.5267 173.738 18.46C173.898 18.3933 174.132 18.2733 174.438 18.1L174.918 17.84L175.958 19.86C174.865 20.7533 173.505 21.2 171.878 21.2C170.252 21.2 169.005 20.7133 168.138 19.74C167.285 18.7533 166.858 17.5067 166.858 16C166.858 14.4933 167.285 13.2533 168.138 12.28C169.005 11.2933 170.178 10.8 171.658 10.8C173.152 10.8 174.285 11.28 175.058 12.24C175.832 13.2 176.218 14.4267 176.218 15.92ZM173.618 14.96C173.565 14.4267 173.378 14 173.058 13.68C172.752 13.36 172.305 13.2 171.718 13.2C171.145 13.2 170.665 13.3667 170.278 13.7C169.905 14.02 169.658 14.44 169.538 14.96H173.618ZM177.622 17.52H179.922V18.68C180.296 18.7467 180.736 18.78 181.242 18.78C182.282 18.78 182.802 18.6067 182.802 18.26C182.802 18.1267 182.489 17.8733 181.862 17.5L179.462 16.06C178.876 15.7 178.442 15.32 178.162 14.92C177.882 14.52 177.742 14.02 177.742 13.42C177.742 12.5933 178.096 11.9533 178.802 11.5C179.509 11.0333 180.469 10.8 181.682 10.8C182.896 10.8 184.049 11.0733 185.142 11.62V14.6H182.842V13.36C182.456 13.2533 182.022 13.2 181.542 13.2C180.742 13.2 180.342 13.3467 180.342 13.64C180.342 13.68 180.349 13.7133 180.362 13.74C180.389 13.7533 180.409 13.7733 180.422 13.8C180.436 13.8133 180.456 13.8333 180.482 13.86C180.509 13.8733 180.536 13.8867 180.562 13.9C180.589 13.9133 180.622 13.9333 180.662 13.96C180.702 13.9867 180.736 14.0133 180.762 14.04C180.802 14.0533 180.849 14.08 180.902 14.12C180.969 14.16 181.029 14.1933 181.082 14.22L183.782 15.86C184.862 16.5267 185.402 17.3267 185.402 18.26C185.402 19.18 185.022 19.9 184.262 20.42C183.502 20.9267 182.436 21.18 181.062 21.18C179.689 21.18 178.542 20.9267 177.622 20.42V17.52Z" fill="#8F4EBC"/>
<path d="M69.354 25.3726C69.354 25.5435 69.3076 25.7119 69.2148 25.8779C69.1221 26.0439 69.0024 26.1978 68.856 26.3394C68.7095 26.481 68.5435 26.6104 68.3579 26.7275C68.1772 26.8398 67.9966 26.9326 67.8159 27.0059C67.7671 27.2109 67.728 27.4404 67.6987 27.6943C67.6694 27.9434 67.6499 28.2217 67.6401 28.5293C67.6304 28.9102 67.6157 29.2886 67.5962 29.6646C67.5767 30.0405 67.5474 30.4141 67.5083 30.7852C67.9038 30.7705 68.3359 30.7559 68.8047 30.7412C69.2734 30.7217 69.7642 30.7046 70.2769 30.6899C70.7896 30.6753 71.3145 30.6631 71.8516 30.6533C72.3936 30.6436 72.9331 30.6387 73.4702 30.6387C73.5093 29.8574 73.5947 29.1641 73.7266 28.5586C73.8584 27.9531 74.0293 27.4429 74.2393 27.0278C74.4541 26.6128 74.7056 26.2979 74.9937 26.083C75.2817 25.8682 75.6016 25.7607 75.9531 25.7607C76.0117 25.7607 76.0825 25.7656 76.1655 25.7754C76.2534 25.7852 76.3389 25.8047 76.4219 25.834C76.5049 25.8584 76.5757 25.8975 76.6343 25.9512C76.6929 26 76.7222 26.0684 76.7222 26.1562C76.7222 26.1807 76.7197 26.2051 76.7148 26.2295C76.71 26.249 76.7002 26.271 76.6855 26.2954C76.6318 26.3833 76.5586 26.4272 76.4658 26.4272C76.4268 26.4272 76.395 26.4224 76.3706 26.4126C76.3511 26.3979 76.3242 26.3857 76.29 26.376C76.2607 26.3613 76.2217 26.3491 76.1729 26.3394C76.124 26.3247 76.0557 26.3174 75.9678 26.3174C75.8945 26.3174 75.7993 26.332 75.6821 26.3613C75.5698 26.3857 75.4478 26.4468 75.3159 26.5444C75.1841 26.6421 75.0474 26.7861 74.9058 26.9766C74.769 27.1621 74.6396 27.416 74.5176 27.7383C74.4004 28.0557 74.2954 28.4512 74.2026 28.9248C74.1147 29.3984 74.0562 29.9697 74.0269 30.6387C74.3491 30.6436 74.6665 30.6484 74.979 30.6533C75.2915 30.6582 75.5991 30.6655 75.9019 30.6753C75.9849 30.6753 76.0483 30.7046 76.0923 30.7632C76.1411 30.8169 76.1655 30.8828 76.1655 30.9609C76.1655 31.0391 76.1387 31.1025 76.085 31.1514C76.0312 31.2002 75.9678 31.2246 75.8945 31.2246C75.7969 31.2246 75.6943 31.2246 75.5869 31.2246C75.4844 31.2197 75.3599 31.2148 75.2134 31.21C75.0718 31.2051 74.9033 31.2002 74.708 31.1953C74.5127 31.1904 74.2808 31.188 74.0122 31.188C74.0073 31.2661 74.0049 31.3442 74.0049 31.4224C74.0049 31.5005 74.0049 31.5811 74.0049 31.6641C74.0049 32.2012 74.0244 32.6821 74.0635 33.1069C74.1074 33.5317 74.1587 33.9077 74.2173 34.2349C74.2808 34.562 74.3491 34.8428 74.4224 35.0771C74.4956 35.3066 74.564 35.4971 74.6274 35.6484C74.6909 35.7949 74.7422 35.9048 74.7812 35.978C74.8252 36.0464 74.8472 36.0806 74.8472 36.0806C74.8813 36.1294 74.8984 36.1831 74.8984 36.2417C74.8984 36.3149 74.8716 36.3784 74.8179 36.4321C74.7642 36.4907 74.6982 36.52 74.6201 36.52C74.5273 36.52 74.4541 36.481 74.4004 36.4028C74.3906 36.3882 74.3345 36.293 74.2319 36.1172C74.1343 35.9414 74.0269 35.6655 73.9097 35.2896C73.7925 34.9087 73.6851 34.4229 73.5874 33.832C73.4946 33.2363 73.4482 32.5137 73.4482 31.6641V31.188C72.9062 31.188 72.3618 31.1929 71.8149 31.2026C71.2681 31.2124 70.7358 31.2246 70.2183 31.2393C69.7056 31.2539 69.2124 31.271 68.7388 31.2905C68.27 31.3052 67.8379 31.3198 67.4424 31.3345C67.3496 32.0132 67.2056 32.6528 67.0103 33.2534C66.8198 33.854 66.5439 34.3813 66.1826 34.8354C65.8262 35.2847 65.3696 35.6411 64.813 35.9048C64.2563 36.1636 63.5703 36.293 62.7549 36.293C62.3252 36.293 61.9077 36.2466 61.5024 36.1538C61.1021 36.0659 60.7285 35.9414 60.3818 35.7803C60.0352 35.6143 59.7227 35.4165 59.4443 35.187C59.166 34.9575 58.939 34.7061 58.7632 34.4326C58.7339 34.3887 58.7192 34.3398 58.7192 34.2861C58.7192 34.2129 58.7437 34.1494 58.7925 34.0957C58.8462 34.0371 58.9146 34.0078 58.9976 34.0078C59.0415 34.0078 59.0854 34.02 59.1294 34.0444C59.1733 34.064 59.2075 34.0933 59.2319 34.1323C59.3833 34.3716 59.5786 34.5889 59.8179 34.7842C60.062 34.9795 60.3379 35.1479 60.6455 35.2896C60.9531 35.4312 61.2852 35.541 61.6416 35.6191C62.0029 35.6973 62.3765 35.7363 62.7622 35.7363C63.48 35.7363 64.083 35.624 64.5713 35.3994C65.0596 35.1699 65.4575 34.8574 65.7651 34.4619C66.0776 34.0664 66.3169 33.605 66.4829 33.0776C66.6538 32.5454 66.7808 31.9741 66.8638 31.3638C66.395 31.3882 66.0239 31.4077 65.7505 31.4224C65.4771 31.437 65.3354 31.4443 65.3257 31.4443C65.2524 31.4443 65.1841 31.4224 65.1206 31.3784C65.062 31.3296 65.0327 31.2637 65.0327 31.1807C65.0327 31.1025 65.0547 31.0366 65.0986 30.9829C65.1475 30.9292 65.2109 30.8975 65.2891 30.8877C65.2988 30.8877 65.4502 30.8804 65.7432 30.8657C66.0361 30.8511 66.4316 30.8315 66.9297 30.8071C66.9688 30.4312 66.998 30.0527 67.0176 29.6719C67.042 29.2861 67.064 28.8979 67.0835 28.5073C67.0933 28.2583 67.1104 28.019 67.1348 27.7896C67.1641 27.5552 67.1982 27.3428 67.2373 27.1523C67.125 27.1768 66.998 27.1987 66.8564 27.2183C66.7197 27.2329 66.583 27.2402 66.4463 27.2402C66.0166 27.2402 65.5942 27.2061 65.1792 27.1377C64.7642 27.0693 64.3467 26.9961 63.9268 26.918C63.5117 26.835 63.0918 26.7593 62.667 26.6909C62.2471 26.6226 61.8174 26.5884 61.3779 26.5884C61.0166 26.5884 60.6772 26.6274 60.3599 26.7056C60.0474 26.7788 59.7739 26.8936 59.5396 27.0498C59.3052 27.2061 59.1196 27.4038 58.9829 27.6431C58.8511 27.8774 58.7852 28.1558 58.7852 28.478C58.7852 28.6831 58.8218 28.8638 58.895 29.02C58.9683 29.1763 59.0513 29.3081 59.144 29.4155C59.2368 29.5229 59.3247 29.6084 59.4077 29.6719C59.4956 29.7305 59.5518 29.7671 59.5762 29.7817C59.6641 29.8452 59.708 29.9258 59.708 30.0234C59.708 30.1016 59.6836 30.1675 59.6348 30.2212C59.5859 30.27 59.5249 30.2944 59.4517 30.2944C59.4175 30.2944 59.3833 30.2896 59.3491 30.2798C59.3198 30.2651 59.293 30.2505 59.2686 30.2358C59.1562 30.1675 59.0391 30.0796 58.917 29.9722C58.7949 29.8647 58.6826 29.7378 58.5801 29.5913C58.4775 29.4399 58.3921 29.2715 58.3237 29.0859C58.2603 28.9004 58.2285 28.6978 58.2285 28.478C58.2285 28.0483 58.3213 27.6797 58.5068 27.3721C58.6973 27.0596 58.9438 26.8057 59.2466 26.6104C59.5493 26.4102 59.8862 26.2637 60.2573 26.1709C60.6333 26.0781 61.0093 26.0317 61.3853 26.0317C61.8101 26.0317 62.23 26.0684 62.645 26.1416C63.0649 26.21 63.4849 26.2856 63.9048 26.3687C64.3247 26.4517 64.7446 26.5298 65.1646 26.603C65.5894 26.6714 66.0215 26.7056 66.4609 26.7056C66.6367 26.7056 66.7954 26.7007 66.937 26.6909C67.0786 26.6763 67.2129 26.6494 67.3398 26.6104C67.4277 26.3027 67.5278 26.0391 67.6401 25.8193C67.7573 25.5947 67.8794 25.4116 68.0063 25.27C68.1382 25.1235 68.27 25.0161 68.4019 24.9478C68.5337 24.8794 68.6606 24.8452 68.7827 24.8452C68.9438 24.8452 69.0781 24.894 69.1855 24.9917C69.2979 25.0894 69.354 25.2163 69.354 25.3726ZM68.7461 25.3652C68.707 25.3652 68.6533 25.3872 68.585 25.4312C68.5215 25.4702 68.4507 25.5337 68.3726 25.6216C68.2944 25.7046 68.2163 25.812 68.1382 25.9438C68.0601 26.0757 67.9917 26.2319 67.9331 26.4126C68.0942 26.3394 68.2358 26.2441 68.3579 26.127C68.48 26.0098 68.5776 25.895 68.6509 25.7827C68.7241 25.6655 68.7705 25.5679 68.79 25.4897C68.8096 25.4067 68.7949 25.3652 68.7461 25.3652ZM79.6519 35.1943C79.5298 35.1943 79.4224 35.1846 79.3296 35.165C79.2563 35.3115 79.1685 35.4482 79.0659 35.5752C78.9634 35.6973 78.8438 35.8047 78.707 35.8975C78.5752 35.9902 78.4263 36.0635 78.2603 36.1172C78.0942 36.1709 77.9136 36.1978 77.7183 36.1978C77.4888 36.1978 77.2788 36.1562 77.0884 36.0732C76.8979 35.9951 76.7319 35.8853 76.5903 35.7437C76.4487 35.5972 76.3389 35.4238 76.2607 35.2236C76.1826 35.0186 76.1436 34.7939 76.1436 34.5498C76.1436 34.2373 76.1997 33.9663 76.312 33.7368C76.4243 33.5024 76.5537 33.3096 76.7002 33.1582C76.8467 33.002 76.9932 32.8872 77.1396 32.814C77.2861 32.7358 77.396 32.6968 77.4692 32.6968C77.5522 32.6968 77.6133 32.7188 77.6523 32.7627C77.6963 32.8066 77.7183 32.8652 77.7183 32.9385C77.7183 33.0215 77.6914 33.085 77.6377 33.1289C77.5889 33.168 77.5254 33.207 77.4473 33.2461C77.3691 33.2852 77.2861 33.3413 77.1982 33.4146C77.1104 33.4829 77.0273 33.5708 76.9492 33.6782C76.876 33.7856 76.8149 33.9126 76.7661 34.0591C76.7173 34.2056 76.6929 34.3691 76.6929 34.5498C76.6929 34.7109 76.7173 34.8623 76.7661 35.0039C76.8149 35.1406 76.8857 35.2603 76.9785 35.3628C77.0713 35.4604 77.1812 35.5386 77.3081 35.5972C77.4351 35.6509 77.5767 35.6777 77.7329 35.6777C78.0112 35.6777 78.2407 35.6143 78.4214 35.4873C78.6069 35.3555 78.7485 35.1895 78.8462 34.9893C78.5581 34.8379 78.3213 34.623 78.1357 34.3447C77.9502 34.0664 77.8574 33.7539 77.8574 33.4072C77.8574 33.1289 77.9233 32.9019 78.0552 32.7261C78.1919 32.5503 78.3701 32.4624 78.5898 32.4624C78.7217 32.4624 78.8462 32.4941 78.9634 32.5576C79.0806 32.6211 79.1831 32.7212 79.271 32.8579C79.3638 32.9946 79.437 33.1704 79.4907 33.3853C79.5444 33.6001 79.5713 33.8564 79.5713 34.1543C79.5713 34.3105 79.5518 34.4741 79.5127 34.645C79.542 34.6499 79.5713 34.6523 79.6006 34.6523C79.6299 34.6523 79.6616 34.6523 79.6958 34.6523C79.8618 34.6523 80.0107 34.6328 80.1426 34.5938C80.2744 34.5547 80.394 34.4961 80.5015 34.418C80.6089 34.3398 80.7041 34.2397 80.7871 34.1177C80.875 33.9956 80.958 33.854 81.0361 33.6929C81.0508 33.6636 81.0825 33.6367 81.1313 33.6123C81.1802 33.583 81.229 33.5684 81.2778 33.5684C81.3413 33.5684 81.3999 33.5952 81.4536 33.6489C81.5122 33.6978 81.5415 33.7637 81.5415 33.8467C81.5415 33.8857 81.5317 33.9297 81.5122 33.9785C81.4927 34.0225 81.4731 34.064 81.4536 34.103C81.3706 34.2495 81.2729 34.3911 81.1606 34.5278C81.0532 34.6597 80.9238 34.7769 80.7725 34.8794C80.626 34.9771 80.46 35.0552 80.2744 35.1138C80.0889 35.1724 79.8813 35.1992 79.6519 35.1943ZM78.3994 33.3486C78.3994 33.4414 78.4116 33.5391 78.436 33.6416C78.4604 33.7441 78.4971 33.8467 78.5459 33.9492C78.5996 34.0469 78.6631 34.1421 78.7363 34.2349C78.8145 34.3228 78.9048 34.3984 79.0073 34.4619C79.022 34.3594 79.0293 34.2593 79.0293 34.1616C79.0293 34.0298 79.0195 33.8955 79 33.7588C78.9805 33.6221 78.9512 33.4976 78.9121 33.3853C78.8779 33.2681 78.834 33.1753 78.7803 33.1069C78.7266 33.0337 78.6631 32.9971 78.5898 32.9971C78.5605 32.9971 78.5215 33.019 78.4727 33.063C78.4238 33.1069 78.3994 33.2021 78.3994 33.3486ZM82.7134 35.3481C82.7866 35.2017 82.8794 35.021 82.9917 34.8062C83.1089 34.5864 83.2285 34.3667 83.3506 34.147C83.4775 33.9272 83.5996 33.7197 83.7168 33.5244C83.8389 33.3291 83.9414 33.1802 84.0244 33.0776C84.166 32.9067 84.3125 32.7847 84.4639 32.7114C84.6152 32.6382 84.7544 32.6016 84.8813 32.6016C85.0083 32.6016 85.1157 32.6284 85.2036 32.6821C85.2964 32.7358 85.3721 32.8091 85.4307 32.9019C85.4893 32.9897 85.5332 33.0947 85.5625 33.2168C85.5918 33.334 85.6064 33.4609 85.6064 33.5977C85.6064 33.6758 85.6016 33.7783 85.5918 33.9053C85.5869 34.0322 85.5796 34.1689 85.5698 34.3154C85.5649 34.4619 85.5576 34.6133 85.5479 34.7695C85.543 34.9258 85.5381 35.0723 85.5332 35.209C85.6064 35.0625 85.6895 34.9014 85.7822 34.7256C85.875 34.5449 85.9678 34.3667 86.0605 34.1909C86.1582 34.0151 86.251 33.8516 86.3389 33.7002C86.4268 33.5439 86.5073 33.417 86.5806 33.3193C86.7905 33.0312 86.9858 32.8384 87.1665 32.7407C87.3521 32.6431 87.5156 32.5942 87.6572 32.5942C87.8232 32.5942 87.96 32.626 88.0674 32.6895C88.1748 32.748 88.2578 32.8262 88.3164 32.9238C88.3799 33.0166 88.4238 33.1216 88.4482 33.2388C88.4727 33.356 88.4849 33.4683 88.4849 33.5757C88.4849 33.7417 88.4727 33.915 88.4482 34.0957C88.4238 34.2764 88.4116 34.4912 88.4116 34.7402C88.4116 34.8428 88.4165 34.9453 88.4263 35.0479C88.436 35.1504 88.4556 35.2407 88.4849 35.3188C88.519 35.397 88.5703 35.4604 88.6387 35.5093C88.707 35.5581 88.7998 35.5825 88.917 35.5825C89.0439 35.5825 89.1685 35.5508 89.2905 35.4873C89.4126 35.4189 89.5298 35.3311 89.6421 35.2236C89.7544 35.1162 89.8594 34.9941 89.957 34.8574C90.0596 34.7207 90.1523 34.584 90.2354 34.4473C90.3184 34.3105 90.3916 34.1812 90.4551 34.0591C90.5186 33.9321 90.5698 33.8247 90.6089 33.7368C90.6333 33.6831 90.6675 33.6416 90.7114 33.6123C90.7554 33.583 90.8042 33.5684 90.8579 33.5684C90.9409 33.5684 91.0068 33.6001 91.0557 33.6636C91.1094 33.7222 91.1362 33.7856 91.1362 33.854C91.1362 33.8882 91.1289 33.9224 91.1143 33.9565C91.0947 33.9956 91.0557 34.0786 90.9971 34.2056C90.9385 34.3276 90.8604 34.4692 90.7627 34.6304C90.665 34.7866 90.5503 34.9526 90.4185 35.1284C90.2915 35.3042 90.1499 35.4678 89.9937 35.6191C89.8374 35.7656 89.6689 35.8877 89.4883 35.9854C89.3076 36.0781 89.1172 36.1245 88.917 36.1245C88.7021 36.1245 88.5264 36.0854 88.3896 36.0073C88.2578 35.9341 88.1504 35.834 88.0674 35.707C87.9893 35.5801 87.9355 35.4336 87.9062 35.2676C87.877 35.1016 87.8623 34.9282 87.8623 34.7476C87.8623 34.5083 87.8745 34.2886 87.8989 34.0884C87.9233 33.8833 87.9355 33.7246 87.9355 33.6123C87.9355 33.4902 87.9233 33.3975 87.8989 33.334C87.8794 33.2705 87.8525 33.2266 87.8184 33.2021C87.7891 33.1729 87.7598 33.1582 87.7305 33.1582C87.7012 33.1533 87.6792 33.1509 87.6646 33.1509C87.5474 33.1509 87.4229 33.2168 87.291 33.3486C87.1641 33.4756 87.0322 33.6465 86.8955 33.8613C86.7588 34.0762 86.6172 34.3203 86.4707 34.5938C86.3291 34.8672 86.1851 35.1455 86.0386 35.4287C85.9556 35.585 85.8848 35.7144 85.8262 35.8169C85.7725 35.9194 85.7188 36 85.665 36.0586C85.6162 36.1172 85.5674 36.1587 85.5186 36.1831C85.4697 36.2075 85.416 36.2197 85.3574 36.2197C85.2305 36.2197 85.1328 36.1758 85.0645 36.0879C85.001 36 84.9692 35.8853 84.9692 35.7437C84.9692 35.6704 84.9717 35.5728 84.9766 35.4507C84.9814 35.3286 84.9863 35.1943 84.9912 35.0479C84.9961 34.9014 85.0034 34.75 85.0132 34.5938C85.0229 34.4375 85.0303 34.2886 85.0352 34.147C85.04 34.0005 85.0449 33.8711 85.0498 33.7588C85.0547 33.6465 85.0571 33.561 85.0571 33.5024C85.0571 33.3755 85.0352 33.2852 84.9912 33.2314C84.9473 33.1729 84.896 33.1436 84.8374 33.1436C84.7837 33.1436 84.7227 33.1631 84.6543 33.2021C84.5908 33.2412 84.5151 33.3169 84.4272 33.4292C84.3589 33.5171 84.271 33.6465 84.1636 33.8174C84.061 33.9834 83.9512 34.1689 83.834 34.374C83.7168 34.5791 83.5996 34.7891 83.4824 35.0039C83.3701 35.2188 83.2725 35.4116 83.1895 35.5825C83.0869 35.7876 82.9844 35.9268 82.8818 36C82.7793 36.0781 82.6792 36.1172 82.5815 36.1172C82.4399 36.1172 82.335 36.0757 82.2666 35.9927C82.1982 35.9048 82.1641 35.79 82.1641 35.6484C82.1641 35.6338 82.1665 35.5459 82.1714 35.3848C82.1812 35.2236 82.1909 35.0283 82.2007 34.7988C82.2104 34.5645 82.2202 34.3154 82.23 34.0518C82.2446 33.7881 82.2568 33.5415 82.2666 33.312C82.2715 33.1899 82.2666 33.0776 82.252 32.9751C82.2373 32.8726 82.2178 32.8115 82.1934 32.792C82.1543 32.8018 82.0762 32.8921 81.959 33.063C81.8467 33.2339 81.7026 33.5317 81.5269 33.9565C81.5024 34.0103 81.4658 34.0518 81.417 34.0811C81.3682 34.1104 81.3169 34.125 81.2632 34.125C81.1802 34.125 81.1143 34.0981 81.0654 34.0444C81.0166 33.9858 80.9922 33.9199 80.9922 33.8467C80.9922 33.8125 80.9995 33.7759 81.0142 33.7368C81.2339 33.2144 81.4438 32.8311 81.644 32.5869C81.8442 32.3379 82.0396 32.2134 82.23 32.2134C82.3423 32.2134 82.4351 32.2402 82.5083 32.2939C82.5864 32.3428 82.6475 32.4087 82.6914 32.4917C82.7354 32.5698 82.7671 32.6602 82.7866 32.7627C82.8062 32.8652 82.8159 32.9653 82.8159 33.063C82.8159 33.4976 82.8037 33.8955 82.7793 34.2568C82.7598 34.6182 82.7378 34.9819 82.7134 35.3481ZM91.4951 35.1943C91.5977 35.3359 91.7295 35.4507 91.8906 35.5386C92.0518 35.6216 92.2495 35.6631 92.4839 35.6631C92.7231 35.6631 92.9404 35.6069 93.1357 35.4946C93.3311 35.3774 93.5093 35.2261 93.6704 35.0405C93.8315 34.855 93.9756 34.6475 94.1025 34.418C94.2295 34.1885 94.3442 33.959 94.4468 33.7295C94.4712 33.6758 94.5054 33.6367 94.5493 33.6123C94.5933 33.583 94.6421 33.5684 94.6958 33.5684C94.7788 33.5684 94.8447 33.5977 94.8936 33.6562C94.9473 33.7148 94.9741 33.7783 94.9741 33.8467C94.9741 33.8711 94.9717 33.8931 94.9668 33.9126C94.9619 33.9272 94.9546 33.9443 94.9448 33.9639C94.6079 34.7061 94.2393 35.2651 93.8389 35.6411C93.4434 36.0171 92.9941 36.21 92.4912 36.2197C92.1689 36.2197 91.8906 36.1562 91.6562 36.0293C91.4219 35.9072 91.229 35.7485 91.0776 35.5532C90.9263 35.353 90.814 35.1284 90.7407 34.8794C90.6675 34.6304 90.6309 34.3813 90.6309 34.1323C90.6309 33.8833 90.6602 33.6538 90.7188 33.4438C90.7822 33.2339 90.8701 33.0508 90.9824 32.8945C91.0996 32.7383 91.2363 32.6162 91.3926 32.5283C91.5537 32.4404 91.7295 32.3965 91.9199 32.3965C92.0322 32.3965 92.1421 32.4209 92.2495 32.4697C92.3618 32.5137 92.4619 32.5796 92.5498 32.6675C92.6377 32.7505 92.7085 32.853 92.7622 32.9751C92.8159 33.0972 92.8428 33.2363 92.8428 33.3926C92.8428 33.5928 92.8086 33.7808 92.7402 33.9565C92.6719 34.1323 92.5767 34.2959 92.4546 34.4473C92.3374 34.5986 92.1958 34.7378 92.0298 34.8647C91.8638 34.9917 91.6855 35.1016 91.4951 35.1943ZM91.2754 34.7183C91.4268 34.6548 91.5635 34.5742 91.6855 34.4766C91.8125 34.3789 91.9199 34.2715 92.0078 34.1543C92.0957 34.0371 92.1641 33.915 92.2129 33.7881C92.2617 33.6562 92.2861 33.5244 92.2861 33.3926C92.2861 33.2461 92.2495 33.1362 92.1763 33.063C92.103 32.9849 92.0176 32.9458 91.9199 32.9458C91.7881 32.9458 91.6758 32.9824 91.583 33.0557C91.4902 33.1289 91.4146 33.2241 91.356 33.3413C91.2974 33.4585 91.2534 33.5903 91.2241 33.7368C91.1997 33.8784 91.1875 34.02 91.1875 34.1616C91.1875 34.2495 91.1948 34.3423 91.2095 34.4399C91.229 34.5376 91.251 34.6304 91.2754 34.7183ZM101.126 35.1943C101.004 35.1943 100.897 35.1846 100.804 35.165C100.731 35.3115 100.643 35.4482 100.541 35.5752C100.438 35.6973 100.318 35.8047 100.182 35.8975C100.05 35.9902 99.9009 36.0635 99.7349 36.1172C99.5688 36.1709 99.3882 36.1978 99.1929 36.1978C98.9634 36.1978 98.7534 36.1562 98.563 36.0732C98.3726 35.9951 98.2065 35.8853 98.0649 35.7437C97.9233 35.5972 97.8135 35.4238 97.7354 35.2236C97.6572 35.0186 97.6182 34.7939 97.6182 34.5498C97.6182 34.2373 97.6743 33.9663 97.7866 33.7368C97.8989 33.5024 98.0283 33.3096 98.1748 33.1582C98.3213 33.002 98.4678 32.8872 98.6143 32.814C98.7607 32.7358 98.8706 32.6968 98.9438 32.6968C99.0269 32.6968 99.0879 32.7188 99.127 32.7627C99.1709 32.8066 99.1929 32.8652 99.1929 32.9385C99.1929 33.0215 99.166 33.085 99.1123 33.1289C99.0635 33.168 99 33.207 98.9219 33.2461C98.8438 33.2852 98.7607 33.3413 98.6729 33.4146C98.585 33.4829 98.502 33.5708 98.4238 33.6782C98.3506 33.7856 98.2896 33.9126 98.2407 34.0591C98.1919 34.2056 98.1675 34.3691 98.1675 34.5498C98.1675 34.7109 98.1919 34.8623 98.2407 35.0039C98.2896 35.1406 98.3604 35.2603 98.4531 35.3628C98.5459 35.4604 98.6558 35.5386 98.7827 35.5972C98.9097 35.6509 99.0513 35.6777 99.2075 35.6777C99.4858 35.6777 99.7153 35.6143 99.896 35.4873C100.082 35.3555 100.223 35.1895 100.321 34.9893C100.033 34.8379 99.7959 34.623 99.6104 34.3447C99.4248 34.0664 99.332 33.7539 99.332 33.4072C99.332 33.1289 99.3979 32.9019 99.5298 32.7261C99.6665 32.5503 99.8447 32.4624 100.064 32.4624C100.196 32.4624 100.321 32.4941 100.438 32.5576C100.555 32.6211 100.658 32.7212 100.746 32.8579C100.838 32.9946 100.912 33.1704 100.965 33.3853C101.019 33.6001 101.046 33.8564 101.046 34.1543C101.046 34.3105 101.026 34.4741 100.987 34.645C101.017 34.6499 101.046 34.6523 101.075 34.6523C101.104 34.6523 101.136 34.6523 101.17 34.6523C101.336 34.6523 101.485 34.6328 101.617 34.5938C101.749 34.5547 101.869 34.4961 101.976 34.418C102.083 34.3398 102.179 34.2397 102.262 34.1177C102.35 33.9956 102.433 33.854 102.511 33.6929C102.525 33.6636 102.557 33.6367 102.606 33.6123C102.655 33.583 102.704 33.5684 102.752 33.5684C102.816 33.5684 102.875 33.5952 102.928 33.6489C102.987 33.6978 103.016 33.7637 103.016 33.8467C103.016 33.8857 103.006 33.9297 102.987 33.9785C102.967 34.0225 102.948 34.064 102.928 34.103C102.845 34.2495 102.748 34.3911 102.635 34.5278C102.528 34.6597 102.398 34.7769 102.247 34.8794C102.101 34.9771 101.935 35.0552 101.749 35.1138C101.563 35.1724 101.356 35.1992 101.126 35.1943ZM99.874 33.3486C99.874 33.4414 99.8862 33.5391 99.9106 33.6416C99.9351 33.7441 99.9717 33.8467 100.021 33.9492C100.074 34.0469 100.138 34.1421 100.211 34.2349C100.289 34.3228 100.379 34.3984 100.482 34.4619C100.497 34.3594 100.504 34.2593 100.504 34.1616C100.504 34.0298 100.494 33.8955 100.475 33.7588C100.455 33.6221 100.426 33.4976 100.387 33.3853C100.353 33.2681 100.309 33.1753 100.255 33.1069C100.201 33.0337 100.138 32.9971 100.064 32.9971C100.035 32.9971 99.9961 33.019 99.9473 33.063C99.8984 33.1069 99.874 33.2021 99.874 33.3486ZM103.067 36.3589C103.429 36.1978 103.756 36.0122 104.049 35.8022C104.347 35.5923 104.61 35.3726 104.84 35.1431C105.074 34.9087 105.272 34.6719 105.433 34.4326C105.599 34.1885 105.731 33.9565 105.829 33.7368C105.873 33.6294 105.956 33.5757 106.078 33.5757C106.161 33.5757 106.227 33.605 106.275 33.6636C106.329 33.7173 106.356 33.7783 106.356 33.8467C106.356 33.8857 106.349 33.9224 106.334 33.9565C106.227 34.1958 106.09 34.4448 105.924 34.7036C105.758 34.9575 105.555 35.209 105.316 35.458C105.082 35.7021 104.806 35.939 104.488 36.1685C104.171 36.3979 103.807 36.6079 103.397 36.7983C103.661 37.0718 103.89 37.3745 104.085 37.7065C104.281 38.0435 104.442 38.3926 104.569 38.7539C104.701 39.1152 104.798 39.479 104.862 39.8452C104.93 40.2163 104.964 40.5703 104.964 40.9072C104.964 41.2148 104.935 41.5029 104.876 41.7715C104.823 42.0449 104.74 42.2817 104.627 42.4819C104.52 42.6821 104.388 42.8384 104.232 42.9507C104.076 43.0679 103.897 43.1265 103.697 43.1265C103.404 43.1265 103.177 43.0166 103.016 42.7969C102.855 42.582 102.735 42.2817 102.657 41.896C102.584 41.5151 102.54 41.0635 102.525 40.541C102.516 40.0234 102.511 39.4595 102.511 38.8491C102.511 38.5464 102.511 38.1924 102.511 37.7871C102.511 37.3867 102.511 36.9546 102.511 36.4907C102.516 36.0317 102.518 35.5508 102.518 35.0479C102.523 34.54 102.528 34.0322 102.533 33.5244C102.538 33.0166 102.542 32.5186 102.547 32.0303C102.552 31.5371 102.56 31.0708 102.569 30.6313C102.584 29.7915 102.613 29.042 102.657 28.3828C102.701 27.7236 102.772 27.167 102.87 26.7129C102.967 26.2588 103.099 25.9146 103.265 25.6802C103.436 25.4409 103.651 25.3213 103.91 25.3213C104.115 25.3213 104.288 25.3799 104.43 25.4971C104.571 25.6094 104.686 25.7632 104.774 25.9585C104.862 26.1489 104.925 26.3735 104.964 26.6323C105.003 26.8911 105.023 27.1621 105.023 27.4453C105.023 28.041 104.972 28.6172 104.869 29.1738C104.767 29.7305 104.627 30.27 104.452 30.7925C104.276 31.3149 104.068 31.8252 103.829 32.3232C103.595 32.8213 103.343 33.312 103.075 33.7954C103.075 33.9956 103.075 34.2129 103.075 34.4473C103.075 34.6768 103.075 34.9087 103.075 35.1431C103.075 35.3726 103.072 35.5947 103.067 35.8096C103.067 36.0195 103.067 36.2026 103.067 36.3589ZM103.089 32.6675C103.29 32.2915 103.473 31.896 103.639 31.481C103.81 31.061 103.956 30.6289 104.078 30.1846C104.2 29.7402 104.295 29.2861 104.364 28.8223C104.432 28.3584 104.466 27.8921 104.466 27.4233C104.466 27.189 104.454 26.9766 104.43 26.7861C104.41 26.5957 104.376 26.4346 104.327 26.3027C104.283 26.166 104.225 26.061 104.151 25.9878C104.083 25.9097 104.002 25.8706 103.91 25.8706C103.812 25.8706 103.727 25.9292 103.653 26.0464C103.58 26.1636 103.517 26.3198 103.463 26.5151C103.409 26.7104 103.363 26.9351 103.324 27.189C103.29 27.4429 103.26 27.709 103.236 27.9873C103.211 28.2607 103.192 28.5366 103.177 28.8149C103.163 29.0884 103.15 29.3472 103.141 29.5913C103.136 29.8306 103.131 30.043 103.126 30.2285C103.126 30.4141 103.126 30.5532 103.126 30.646C103.121 30.8413 103.116 31.0146 103.111 31.166C103.111 31.3174 103.109 31.4663 103.104 31.6128C103.099 31.7593 103.094 31.9155 103.089 32.0815C103.089 32.2476 103.089 32.4429 103.089 32.6675ZM103.067 37.2598C103.067 37.5674 103.065 37.853 103.06 38.1167C103.06 38.3853 103.06 38.6294 103.06 38.8491C103.06 39.3032 103.062 39.7524 103.067 40.1968C103.072 40.6411 103.094 41.0391 103.133 41.3906C103.177 41.7471 103.241 42.0327 103.324 42.2476C103.412 42.4673 103.536 42.5771 103.697 42.5771C103.844 42.5771 103.963 42.5112 104.056 42.3794C104.149 42.2476 104.22 42.0913 104.269 41.9106C104.322 41.73 104.359 41.5444 104.378 41.354C104.398 41.1685 104.408 41.0171 104.408 40.8999C104.408 40.6021 104.378 40.2896 104.32 39.9624C104.266 39.6353 104.181 39.3105 104.063 38.9883C103.951 38.6709 103.812 38.3633 103.646 38.0654C103.48 37.7676 103.287 37.499 103.067 37.2598ZM109.945 33.29C109.916 33.3682 109.879 33.4561 109.835 33.5537C109.796 33.6514 109.75 33.7539 109.696 33.8613C109.652 33.9443 109.605 34.0103 109.557 34.0591C109.513 34.103 109.454 34.125 109.381 34.125C109.298 34.125 109.232 34.1006 109.183 34.0518C109.134 33.998 109.11 33.937 109.11 33.8687C109.11 33.8442 109.112 33.8247 109.117 33.8101C109.122 33.7905 109.134 33.7612 109.154 33.7222C109.281 33.478 109.374 33.2656 109.432 33.085C109.496 32.8994 109.547 32.7065 109.586 32.5063C109.552 32.394 109.527 32.2988 109.513 32.2207C109.498 32.1426 109.491 32.062 109.491 31.979C109.491 31.8179 109.525 31.6885 109.593 31.5908C109.662 31.4883 109.757 31.437 109.879 31.437C109.991 31.437 110.079 31.4858 110.143 31.5835C110.211 31.6812 110.245 31.8008 110.245 31.9424C110.245 32.0205 110.238 32.0986 110.223 32.1768C110.208 32.2549 110.189 32.3525 110.165 32.4697C110.277 32.748 110.389 32.9946 110.501 33.2095C110.614 33.4243 110.714 33.6221 110.802 33.8027C110.89 33.9785 110.96 34.1445 111.014 34.3008C111.073 34.457 111.102 34.6133 111.102 34.7695C111.102 34.9746 111.061 35.1699 110.978 35.3555C110.895 35.541 110.758 35.6973 110.567 35.8242C110.592 35.8291 110.616 35.8315 110.641 35.8315C110.665 35.8315 110.689 35.8315 110.714 35.8315C110.992 35.8315 111.249 35.7681 111.483 35.6411C111.717 35.5142 111.927 35.3506 112.113 35.1504C112.303 34.9453 112.472 34.7207 112.618 34.4766C112.765 34.2275 112.892 33.981 112.999 33.7368C113.048 33.6245 113.116 33.5684 113.204 33.5684C113.287 33.5684 113.351 33.5977 113.395 33.6562C113.443 33.7148 113.468 33.7783 113.468 33.8467C113.468 33.8857 113.46 33.9224 113.446 33.9565C113.392 34.0884 113.321 34.2397 113.233 34.4106C113.15 34.5767 113.048 34.75 112.926 34.9307C112.809 35.1064 112.672 35.2798 112.516 35.4507C112.359 35.6216 112.184 35.7754 111.988 35.9121C111.798 36.0439 111.588 36.1489 111.358 36.2271C111.129 36.3101 110.877 36.3516 110.604 36.3516C110.277 36.3516 109.972 36.293 109.688 36.1758C109.41 36.0635 109.183 35.8755 109.007 35.6118C108.978 35.5679 108.963 35.5215 108.963 35.4727C108.963 35.3994 108.99 35.3359 109.044 35.2822C109.103 35.2236 109.168 35.1943 109.242 35.1943C109.32 35.1943 109.386 35.2212 109.439 35.2749C109.444 35.2847 109.461 35.3018 109.491 35.3262C109.52 35.3457 109.554 35.3701 109.593 35.3994C109.637 35.4238 109.686 35.4458 109.74 35.4653C109.798 35.4849 109.857 35.4946 109.916 35.4946C110.033 35.4946 110.13 35.4702 110.208 35.4214C110.292 35.3726 110.357 35.314 110.406 35.2456C110.455 35.1724 110.489 35.0967 110.509 35.0186C110.533 34.9355 110.545 34.8647 110.545 34.8062C110.545 34.6841 110.526 34.562 110.487 34.4399C110.448 34.3179 110.396 34.1958 110.333 34.0737C110.274 33.9517 110.208 33.8271 110.135 33.7002C110.067 33.5684 110.003 33.4316 109.945 33.29ZM114.632 35.3481C114.706 35.2017 114.798 35.021 114.911 34.8062C115.028 34.5864 115.147 34.3667 115.27 34.147C115.396 33.9272 115.519 33.7197 115.636 33.5244C115.758 33.3291 115.86 33.1802 115.943 33.0776C116.085 32.9067 116.231 32.7847 116.383 32.7114C116.534 32.6382 116.673 32.6016 116.8 32.6016C116.927 32.6016 117.035 32.6284 117.123 32.6821C117.215 32.7358 117.291 32.8091 117.35 32.9019C117.408 32.9897 117.452 33.0947 117.481 33.2168C117.511 33.334 117.525 33.4609 117.525 33.5977C117.525 33.6758 117.521 33.7783 117.511 33.9053C117.506 34.0322 117.499 34.1689 117.489 34.3154C117.484 34.4619 117.477 34.6133 117.467 34.7695C117.462 34.9258 117.457 35.0723 117.452 35.209C117.525 35.0625 117.608 34.9014 117.701 34.7256C117.794 34.5449 117.887 34.3667 117.979 34.1909C118.077 34.0151 118.17 33.8516 118.258 33.7002C118.346 33.5439 118.426 33.417 118.5 33.3193C118.709 33.0312 118.905 32.8384 119.085 32.7407C119.271 32.6431 119.435 32.5942 119.576 32.5942C119.742 32.5942 119.879 32.626 119.986 32.6895C120.094 32.748 120.177 32.8262 120.235 32.9238C120.299 33.0166 120.343 33.1216 120.367 33.2388C120.392 33.356 120.404 33.4683 120.404 33.5757C120.404 33.7417 120.392 33.915 120.367 34.0957C120.343 34.2764 120.331 34.4912 120.331 34.7402C120.331 34.8428 120.335 34.9453 120.345 35.0479C120.355 35.1504 120.375 35.2407 120.404 35.3188C120.438 35.397 120.489 35.4604 120.558 35.5093C120.626 35.5581 120.719 35.5825 120.836 35.5825C120.963 35.5825 121.087 35.5508 121.209 35.4873C121.332 35.4189 121.449 35.3311 121.561 35.2236C121.673 35.1162 121.778 34.9941 121.876 34.8574C121.979 34.7207 122.071 34.584 122.154 34.4473C122.237 34.3105 122.311 34.1812 122.374 34.0591C122.438 33.9321 122.489 33.8247 122.528 33.7368C122.552 33.6831 122.586 33.6416 122.63 33.6123C122.674 33.583 122.723 33.5684 122.777 33.5684C122.86 33.5684 122.926 33.6001 122.975 33.6636C123.028 33.7222 123.055 33.7856 123.055 33.854C123.055 33.8882 123.048 33.9224 123.033 33.9565C123.014 33.9956 122.975 34.0786 122.916 34.2056C122.857 34.3276 122.779 34.4692 122.682 34.6304C122.584 34.7866 122.469 34.9526 122.337 35.1284C122.21 35.3042 122.069 35.4678 121.913 35.6191C121.756 35.7656 121.588 35.8877 121.407 35.9854C121.227 36.0781 121.036 36.1245 120.836 36.1245C120.621 36.1245 120.445 36.0854 120.309 36.0073C120.177 35.9341 120.069 35.834 119.986 35.707C119.908 35.5801 119.854 35.4336 119.825 35.2676C119.796 35.1016 119.781 34.9282 119.781 34.7476C119.781 34.5083 119.793 34.2886 119.818 34.0884C119.842 33.8833 119.854 33.7246 119.854 33.6123C119.854 33.4902 119.842 33.3975 119.818 33.334C119.798 33.2705 119.771 33.2266 119.737 33.2021C119.708 33.1729 119.679 33.1582 119.649 33.1582C119.62 33.1533 119.598 33.1509 119.583 33.1509C119.466 33.1509 119.342 33.2168 119.21 33.3486C119.083 33.4756 118.951 33.6465 118.814 33.8613C118.678 34.0762 118.536 34.3203 118.39 34.5938C118.248 34.8672 118.104 35.1455 117.958 35.4287C117.875 35.585 117.804 35.7144 117.745 35.8169C117.691 35.9194 117.638 36 117.584 36.0586C117.535 36.1172 117.486 36.1587 117.438 36.1831C117.389 36.2075 117.335 36.2197 117.276 36.2197C117.149 36.2197 117.052 36.1758 116.983 36.0879C116.92 36 116.888 35.8853 116.888 35.7437C116.888 35.6704 116.891 35.5728 116.896 35.4507C116.9 35.3286 116.905 35.1943 116.91 35.0479C116.915 34.9014 116.922 34.75 116.932 34.5938C116.942 34.4375 116.949 34.2886 116.954 34.147C116.959 34.0005 116.964 33.8711 116.969 33.7588C116.974 33.6465 116.976 33.561 116.976 33.5024C116.976 33.3755 116.954 33.2852 116.91 33.2314C116.866 33.1729 116.815 33.1436 116.756 33.1436C116.703 33.1436 116.642 33.1631 116.573 33.2021C116.51 33.2412 116.434 33.3169 116.346 33.4292C116.278 33.5171 116.19 33.6465 116.083 33.8174C115.98 33.9834 115.87 34.1689 115.753 34.374C115.636 34.5791 115.519 34.7891 115.401 35.0039C115.289 35.2188 115.191 35.4116 115.108 35.5825C115.006 35.7876 114.903 35.9268 114.801 36C114.698 36.0781 114.598 36.1172 114.5 36.1172C114.359 36.1172 114.254 36.0757 114.186 35.9927C114.117 35.9048 114.083 35.79 114.083 35.6484C114.083 35.6338 114.085 35.5459 114.09 35.3848C114.1 35.2236 114.11 35.0283 114.12 34.7988C114.129 34.5645 114.139 34.3154 114.149 34.0518C114.164 33.7881 114.176 33.5415 114.186 33.312C114.19 33.1899 114.186 33.0776 114.171 32.9751C114.156 32.8726 114.137 32.8115 114.112 32.792C114.073 32.8018 113.995 32.8921 113.878 33.063C113.766 33.2339 113.622 33.5317 113.446 33.9565C113.421 34.0103 113.385 34.0518 113.336 34.0811C113.287 34.1104 113.236 34.125 113.182 34.125C113.099 34.125 113.033 34.0981 112.984 34.0444C112.936 33.9858 112.911 33.9199 112.911 33.8467C112.911 33.8125 112.918 33.7759 112.933 33.7368C113.153 33.2144 113.363 32.8311 113.563 32.5869C113.763 32.3379 113.958 32.2134 114.149 32.2134C114.261 32.2134 114.354 32.2402 114.427 32.2939C114.505 32.3428 114.566 32.4087 114.61 32.4917C114.654 32.5698 114.686 32.6602 114.706 32.7627C114.725 32.8652 114.735 32.9653 114.735 33.063C114.735 33.4976 114.723 33.8955 114.698 34.2568C114.679 34.6182 114.657 34.9819 114.632 35.3481ZM123.729 30.2505C123.729 30.436 123.663 30.5947 123.531 30.7266C123.404 30.8535 123.248 30.917 123.062 30.917C122.877 30.917 122.718 30.8535 122.586 30.7266C122.459 30.5947 122.396 30.436 122.396 30.2505C122.396 30.1577 122.413 30.0723 122.447 29.9941C122.481 29.9111 122.528 29.8403 122.586 29.7817C122.65 29.7183 122.721 29.6694 122.799 29.6353C122.882 29.6011 122.97 29.584 123.062 29.584C123.155 29.584 123.241 29.6011 123.319 29.6353C123.402 29.6694 123.473 29.7183 123.531 29.7817C123.595 29.8403 123.644 29.9111 123.678 29.9941C123.712 30.0723 123.729 30.1577 123.729 30.2505ZM122.542 34.5425C122.542 33.8394 122.586 33.1387 122.674 32.4404C122.684 32.3721 122.713 32.3135 122.762 32.2646C122.816 32.2109 122.884 32.1841 122.967 32.1841C123.041 32.1841 123.102 32.2134 123.15 32.272C123.199 32.3257 123.224 32.3892 123.224 32.4624C123.224 32.4917 123.216 32.5796 123.202 32.7261C123.192 32.8726 123.177 33.0483 123.158 33.2534C123.143 33.4536 123.128 33.6685 123.114 33.8979C123.104 34.1226 123.099 34.3301 123.099 34.5205C123.099 34.7793 123.124 34.9893 123.172 35.1504C123.226 35.3066 123.292 35.4287 123.37 35.5166C123.453 35.6045 123.539 35.6631 123.626 35.6924C123.719 35.7217 123.807 35.7363 123.89 35.7363C124.027 35.7363 124.168 35.6875 124.315 35.5898C124.461 35.4922 124.61 35.3555 124.762 35.1797C124.918 35.0039 125.074 34.7939 125.23 34.5498C125.387 34.3008 125.541 34.0249 125.692 33.7222C125.716 33.6733 125.75 33.6367 125.794 33.6123C125.838 33.583 125.887 33.5684 125.941 33.5684C126.019 33.5684 126.083 33.5977 126.131 33.6562C126.185 33.7148 126.212 33.7783 126.212 33.8467C126.212 33.8955 126.202 33.937 126.183 33.9712C126.124 34.0835 126.051 34.2202 125.963 34.3813C125.875 34.5425 125.775 34.7085 125.663 34.8794C125.55 35.0503 125.426 35.2212 125.289 35.3921C125.157 35.5581 125.016 35.7095 124.864 35.8462C124.713 35.978 124.554 36.0854 124.388 36.1685C124.222 36.2515 124.054 36.293 123.883 36.293C123.663 36.293 123.47 36.2466 123.304 36.1538C123.138 36.061 122.997 35.9365 122.879 35.7803C122.767 35.624 122.682 35.4409 122.623 35.231C122.569 35.0161 122.542 34.7866 122.542 34.5425ZM123.319 30.2505C123.319 30.1821 123.292 30.1235 123.238 30.0747C123.189 30.021 123.131 29.9941 123.062 29.9941C122.994 29.9941 122.936 30.021 122.887 30.0747C122.838 30.1235 122.813 30.1821 122.813 30.2505C122.813 30.3188 122.838 30.3774 122.887 30.4263C122.936 30.4751 122.994 30.4995 123.062 30.4995C123.131 30.4995 123.189 30.4751 123.238 30.4263C123.292 30.3774 123.319 30.3188 123.319 30.2505ZM129.852 33.9712C129.798 34.0835 129.73 34.2178 129.647 34.374C129.569 34.5254 129.479 34.6841 129.376 34.8501C129.273 35.0161 129.159 35.1821 129.032 35.3481C128.905 35.5093 128.766 35.6558 128.614 35.7876C128.468 35.9146 128.309 36.0171 128.138 36.0952C127.972 36.1782 127.794 36.2197 127.604 36.2197C127.311 36.2197 127.059 36.1294 126.849 35.9487C126.639 35.7681 126.461 35.5312 126.314 35.2383C126.168 34.9453 126.048 34.6133 125.956 34.2422C125.868 33.8662 125.799 33.4854 125.75 33.0996C125.702 32.709 125.667 32.3306 125.648 31.9644C125.633 31.5981 125.626 31.2734 125.626 30.9902C125.626 30.5801 125.638 30.1553 125.663 29.7158C125.692 29.2764 125.736 28.8467 125.794 28.4268C125.853 28.0068 125.926 27.6089 126.014 27.2329C126.107 26.8569 126.214 26.5273 126.336 26.2441C126.463 25.9609 126.607 25.7363 126.769 25.5703C126.93 25.4043 127.113 25.3213 127.318 25.3213C127.479 25.3213 127.623 25.3604 127.75 25.4385C127.882 25.5117 127.992 25.6338 128.08 25.8047C128.167 25.9756 128.236 26.1978 128.285 26.4712C128.333 26.7446 128.358 27.0791 128.358 27.4746C128.358 27.9629 128.307 28.4683 128.204 28.9907C128.102 29.5083 127.962 30.0308 127.787 30.5581C127.611 31.0854 127.403 31.6128 127.164 32.1401C126.925 32.6626 126.668 33.1729 126.395 33.6709C126.517 34.291 126.681 34.7793 126.886 35.1357C127.091 35.4873 127.337 35.6631 127.625 35.6631C127.821 35.6631 128.009 35.5874 128.189 35.436C128.37 35.2798 128.536 35.0967 128.688 34.8867C128.839 34.6768 128.971 34.4644 129.083 34.2495C129.2 34.0298 129.291 33.854 129.354 33.7222C129.378 33.6733 129.413 33.6367 129.457 33.6123C129.5 33.583 129.549 33.5684 129.603 33.5684C129.686 33.5684 129.752 33.5977 129.801 33.6562C129.854 33.7148 129.881 33.7808 129.881 33.854C129.881 33.8833 129.872 33.9224 129.852 33.9712ZM126.183 31.0269C126.183 31.3394 126.19 31.6396 126.205 31.9277C126.219 32.2158 126.239 32.4917 126.263 32.7554C126.468 32.3599 126.664 31.9399 126.849 31.4956C127.035 31.0464 127.198 30.5947 127.34 30.1406C127.481 29.6816 127.594 29.2275 127.677 28.7783C127.765 28.3242 127.809 27.8921 127.809 27.4819C127.809 26.9058 127.762 26.4932 127.669 26.2441C127.577 25.9951 127.452 25.8706 127.296 25.8706C127.193 25.8706 127.093 25.9414 126.996 26.083C126.903 26.2246 126.815 26.4175 126.732 26.6616C126.649 26.9058 126.573 27.1938 126.505 27.5259C126.437 27.8579 126.378 28.2144 126.329 28.5952C126.285 28.9761 126.249 29.374 126.219 29.7891C126.195 30.2041 126.183 30.6167 126.183 31.0269ZM130.24 35.1943C130.343 35.3359 130.475 35.4507 130.636 35.5386C130.797 35.6216 130.995 35.6631 131.229 35.6631C131.468 35.6631 131.686 35.6069 131.881 35.4946C132.076 35.3774 132.254 35.2261 132.416 35.0405C132.577 34.855 132.721 34.6475 132.848 34.418C132.975 34.1885 133.089 33.959 133.192 33.7295C133.216 33.6758 133.25 33.6367 133.294 33.6123C133.338 33.583 133.387 33.5684 133.441 33.5684C133.524 33.5684 133.59 33.5977 133.639 33.6562C133.692 33.7148 133.719 33.7783 133.719 33.8467C133.719 33.8711 133.717 33.8931 133.712 33.9126C133.707 33.9272 133.7 33.9443 133.69 33.9639C133.353 34.7061 132.984 35.2651 132.584 35.6411C132.188 36.0171 131.739 36.21 131.236 36.2197C130.914 36.2197 130.636 36.1562 130.401 36.0293C130.167 35.9072 129.974 35.7485 129.823 35.5532C129.671 35.353 129.559 35.1284 129.486 34.8794C129.413 34.6304 129.376 34.3813 129.376 34.1323C129.376 33.8833 129.405 33.6538 129.464 33.4438C129.527 33.2339 129.615 33.0508 129.728 32.8945C129.845 32.7383 129.981 32.6162 130.138 32.5283C130.299 32.4404 130.475 32.3965 130.665 32.3965C130.777 32.3965 130.887 32.4209 130.995 32.4697C131.107 32.5137 131.207 32.5796 131.295 32.6675C131.383 32.7505 131.454 32.853 131.507 32.9751C131.561 33.0972 131.588 33.2363 131.588 33.3926C131.588 33.5928 131.554 33.7808 131.485 33.9565C131.417 34.1323 131.322 34.2959 131.2 34.4473C131.083 34.5986 130.941 34.7378 130.775 34.8647C130.609 34.9917 130.431 35.1016 130.24 35.1943ZM130.021 34.7183C130.172 34.6548 130.309 34.5742 130.431 34.4766C130.558 34.3789 130.665 34.2715 130.753 34.1543C130.841 34.0371 130.909 33.915 130.958 33.7881C131.007 33.6562 131.031 33.5244 131.031 33.3926C131.031 33.2461 130.995 33.1362 130.921 33.063C130.848 32.9849 130.763 32.9458 130.665 32.9458C130.533 32.9458 130.421 32.9824 130.328 33.0557C130.235 33.1289 130.16 33.2241 130.101 33.3413C130.042 33.4585 129.999 33.5903 129.969 33.7368C129.945 33.8784 129.933 34.02 129.933 34.1616C129.933 34.2495 129.94 34.3423 129.955 34.4399C129.974 34.5376 129.996 34.6304 130.021 34.7183ZM134.012 33.29C133.983 33.3682 133.946 33.4561 133.902 33.5537C133.863 33.6514 133.817 33.7539 133.763 33.8613C133.719 33.9443 133.673 34.0103 133.624 34.0591C133.58 34.103 133.521 34.125 133.448 34.125C133.365 34.125 133.299 34.1006 133.25 34.0518C133.202 33.998 133.177 33.937 133.177 33.8687C133.177 33.8442 133.18 33.8247 133.185 33.8101C133.189 33.7905 133.202 33.7612 133.221 33.7222C133.348 33.478 133.441 33.2656 133.5 33.085C133.563 32.8994 133.614 32.7065 133.653 32.5063C133.619 32.394 133.595 32.2988 133.58 32.2207C133.565 32.1426 133.558 32.062 133.558 31.979C133.558 31.8179 133.592 31.6885 133.661 31.5908C133.729 31.4883 133.824 31.437 133.946 31.437C134.059 31.437 134.146 31.4858 134.21 31.5835C134.278 31.6812 134.312 31.8008 134.312 31.9424C134.312 32.0205 134.305 32.0986 134.291 32.1768C134.276 32.2549 134.256 32.3525 134.232 32.4697C134.344 32.748 134.457 32.9946 134.569 33.2095C134.681 33.4243 134.781 33.6221 134.869 33.8027C134.957 33.9785 135.028 34.1445 135.082 34.3008C135.14 34.457 135.169 34.6133 135.169 34.7695C135.169 34.9746 135.128 35.1699 135.045 35.3555C134.962 35.541 134.825 35.6973 134.635 35.8242C134.659 35.8291 134.684 35.8315 134.708 35.8315C134.732 35.8315 134.757 35.8315 134.781 35.8315C135.06 35.8315 135.316 35.7681 135.55 35.6411C135.785 35.5142 135.995 35.3506 136.18 35.1504C136.371 34.9453 136.539 34.7207 136.686 34.4766C136.832 34.2275 136.959 33.981 137.066 33.7368C137.115 33.6245 137.184 33.5684 137.271 33.5684C137.354 33.5684 137.418 33.5977 137.462 33.6562C137.511 33.7148 137.535 33.7783 137.535 33.8467C137.535 33.8857 137.528 33.9224 137.513 33.9565C137.459 34.0884 137.389 34.2397 137.301 34.4106C137.218 34.5767 137.115 34.75 136.993 34.9307C136.876 35.1064 136.739 35.2798 136.583 35.4507C136.427 35.6216 136.251 35.7754 136.056 35.9121C135.865 36.0439 135.655 36.1489 135.426 36.2271C135.196 36.3101 134.945 36.3516 134.671 36.3516C134.344 36.3516 134.039 36.293 133.756 36.1758C133.478 36.0635 133.25 35.8755 133.075 35.6118C133.045 35.5679 133.031 35.5215 133.031 35.4727C133.031 35.3994 133.058 35.3359 133.111 35.2822C133.17 35.2236 133.236 35.1943 133.309 35.1943C133.387 35.1943 133.453 35.2212 133.507 35.2749C133.512 35.2847 133.529 35.3018 133.558 35.3262C133.587 35.3457 133.622 35.3701 133.661 35.3994C133.705 35.4238 133.753 35.4458 133.807 35.4653C133.866 35.4849 133.924 35.4946 133.983 35.4946C134.1 35.4946 134.198 35.4702 134.276 35.4214C134.359 35.3726 134.425 35.314 134.474 35.2456C134.522 35.1724 134.557 35.0967 134.576 35.0186C134.601 34.9355 134.613 34.8647 134.613 34.8062C134.613 34.6841 134.593 34.562 134.554 34.4399C134.515 34.3179 134.464 34.1958 134.4 34.0737C134.342 33.9517 134.276 33.8271 134.203 33.7002C134.134 33.5684 134.071 33.4316 134.012 33.29Z" fill="#F16FD3"/>
<g clip-path="url(#clip0)">
<path d="M44.0831 21.6548V40.9895C44.0831 43.124 34.3848 44.8564 22.4282 44.8564C10.4717 44.8564 0.773438 43.124 0.773438 40.9895V20.8428L44.0831 21.6548Z" fill="#744694"/>
<path d="M44.0831 32.4822C44.0831 34.6175 34.3879 36.3491 22.4282 36.3491C10.4686 36.3491 0.773438 34.6175 0.773438 32.4822V28.6152C0.773438 30.7505 10.4686 32.4822 22.4282 32.4822C34.3879 32.4822 44.0831 30.7505 44.0831 28.6152V32.4822Z" fill="#F16FD3"/>
<path d="M44.0831 16.2412V22.8923C43.7959 22.76 43.4985 22.6514 43.1937 22.5675C40.7807 21.9256 40.015 24.7253 37.9269 25.0269C37.028 25.0482 36.1593 24.7018 35.5217 24.0679C35.0023 23.5781 34.3175 23.302 33.6037 23.2945C32.5441 23.4182 32.0492 24.5242 31.2062 25.0578C30.7152 25.3981 30.067 25.4073 29.5666 25.081C29.2101 24.8281 28.8668 24.557 28.538 24.269C28.1163 23.9084 27.552 23.7622 27.0083 23.8724C26.4645 23.9827 26.0018 24.3372 25.7538 24.8335C25.0887 25.9627 25.7074 29.2341 23.9286 29.3888C22.2426 29.5357 22.3741 27.03 22.3122 25.9395C22.3107 24.7545 21.6189 23.679 20.5412 23.1862C19.3656 22.7918 18.5691 23.7817 17.7029 24.4237C17.2471 24.7746 16.6689 24.9266 16.0995 24.8451C15.5301 24.7635 15.0178 24.4554 14.6789 23.9906C13.9597 23.2249 13.1399 22.0803 11.9566 22.32C10.7733 22.5598 10.2629 24.2458 8.93266 23.9751C7.78032 23.7431 7.51736 22.1963 6.46556 21.7709C6.03054 21.6176 5.55662 21.6149 5.11987 21.7632C4.30781 22.0107 3.65043 22.6294 2.77651 22.6371C2.06981 22.643 1.37569 22.4501 0.773438 22.0803V16.2412C0.773438 18.3758 44.0831 18.3758 44.0831 16.2412Z" fill="#D78CAE"/>
<path d="M44.0831 16.2411C44.0831 18.3757 34.3848 20.108 22.4282 20.108C10.4717 20.108 0.773438 18.3757 0.773438 16.2411C0.773438 14.9882 4.10673 13.8746 9.28068 13.1708L12.3742 12.815C14.9496 12.5753 17.8266 12.4206 20.8815 12.3896H23.975C27.0299 12.4206 29.9069 12.5753 32.4823 12.815L35.5758 13.1708C40.7498 13.8746 44.0831 14.9882 44.0831 16.2411Z" fill="#F16FD3"/>
<path d="M12.3743 10.0541C12.3743 9.19984 11.6818 8.50732 10.8275 8.50732C9.97327 8.50732 9.28076 9.19984 9.28076 10.0541V14.6944C9.28076 15.5487 9.97327 16.2412 10.8275 16.2412C11.6818 16.2412 12.3743 15.5487 12.3743 14.6944V10.0541Z" fill="#8F4EBC"/>
<path d="M13.4804 5.30852C13.0855 5.80394 12.5059 6.11731 11.8751 6.17654C11.2443 6.23577 10.6166 6.03576 10.1363 5.62252C9.12709 4.74626 8.99209 3.22854 9.83082 2.18791C10.673 1.15312 14.6947 0 14.6947 0C14.6947 0 14.3203 4.27373 13.4804 5.30852Z" fill="#F0C419"/>
<path d="M35.5755 10.0541C35.5755 9.19984 34.883 8.50732 34.0287 8.50732C33.1745 8.50732 32.4819 9.19984 32.4819 10.0541V14.6944C32.4819 15.5487 33.1745 16.2412 34.0287 16.2412C34.883 16.2412 35.5755 15.5487 35.5755 14.6944V10.0541Z" fill="#8F4EBC"/>
<path d="M36.6819 5.30852C36.287 5.80394 35.7074 6.11731 35.0766 6.17654C34.4458 6.23577 33.8181 6.03576 33.3378 5.62252C32.3274 4.74736 32.1907 3.22954 33.0285 2.18791C33.8745 1.15312 37.8961 0 37.8961 0C37.8961 0 37.5218 4.27373 36.6819 5.30852Z" fill="#F0C419"/>
<path d="M23.9749 10.8275C23.9749 9.97328 23.2824 9.28076 22.4281 9.28076C21.5739 9.28076 20.8813 9.97328 20.8813 10.8275V15.4678C20.8813 16.3221 21.5739 17.0146 22.4281 17.0146C23.2824 17.0146 23.9749 16.3221 23.9749 15.4678V10.8275Z" fill="#8F4EBC"/>
<path d="M25.0808 6.08196C24.6859 6.57738 24.1064 6.89075 23.4756 6.94998C22.8447 7.00921 22.217 6.80919 21.7367 6.39596C20.7263 5.5208 20.5896 4.00297 21.4274 2.96135C22.2735 1.92656 26.2951 0.773438 26.2951 0.773438C26.2951 0.773438 25.9207 5.04717 25.0808 6.08196Z" fill="#F0C419"/>
</g>
<defs>
<clipPath id="clip0">
<rect width="44.8564" height="44.8564" fill="white"/>
</clipPath>
</defs>
</svg>
