<svg width="1440" height="126" viewBox="0 0 1440 126" fill="none" xmlns="http://www.w3.org/2000/svg">
<path d="M0 16.0527L34.4 19.8039C68.8 23.6197 137.6 31.122 206.08 39.9824C274.72 48.8429 342.88 58.9322 411.52 51.9473C480 44.9624 548.8 20.774 617.28 19.0925C685.92 17.3463 754.08 38.0422 822.72 47.226C891.2 56.3452 960 54.0169 1028.48 41.4053C1097.12 28.7937 1165.28 5.89879 1233.92 1.04817C1302.4 -3.80244 1371.2 9.39123 1405.6 15.9234L1440 22.5202V126H1405.6C1371.2 126 1302.4 126 1233.92 126C1165.28 126 1097.12 126 1028.48 126C960 126 891.2 126 822.72 126C754.08 126 685.92 126 617.28 126C548.8 126 480 126 411.52 126C342.88 126 274.72 126 206.08 126C137.6 126 68.8 126 34.4 126H0V16.0527Z" fill="#F16FD3" fill-opacity="0.1"/>
</svg>
